<?xml version="1.0" standalone="no"?>
<!DOCTYPE svg PUBLIC "-//W3C//DTD SVG 20010904//EN"
 "http://www.w3.org/TR/2001/REC-SVG-20010904/DTD/svg10.dtd">
<svg version="1.0" xmlns="http://www.w3.org/2000/svg"
 width="122.000000pt" height="122.000000pt" viewBox="0 0 122.000000 122.000000"
 preserveAspectRatio="xMidYMid meet">
<metadata>
Created by potrace 1.14, written by Peter Selinger 2001-2017
</metadata>
<g transform="translate(0.000000,122.000000) scale(0.100000,-0.100000)"
fill="#000000" stroke="none">
<path d="M476 1174 c-133 -32 -266 -125 -345 -243 -66 -99 -91 -180 -97 -307
-14 -324 267 -604 591 -589 109 5 139 12 222 50 128 59 220 149 286 281 16 31
30 64 32 73 2 9 8 35 13 59 14 60 12 173 -4 241 -15 66 -33 111 -45 111 -5 0
-37 -14 -73 -31 l-65 -31 21 -46 c24 -57 28 -187 8 -247 -8 -22 -14 -42 -15
-45 0 -3 -14 -27 -31 -55 -144 -233 -459 -277 -655 -91 -137 131 -171 345 -80
514 22 42 86 109 136 143 105 71 250 92 367 52 l58 -20 34 68 34 67 -46 20
c-94 41 -237 51 -346 26z"/>
<path d="M903 1008 c-12 -6 -27 -23 -33 -39 -27 -64 20 -126 86 -116 43 7 64
28 71 70 10 63 -65 114 -124 85z"/>
<path d="M530 891 c-115 -37 -198 -139 -207 -254 -3 -34 0 -80 6 -102 32 -121
144 -210 271 -216 148 -7 280 104 297 249 3 26 6 49 6 52 3 16 -18 90 -35 125
-47 92 -134 146 -243 151 -38 2 -81 0 -95 -5z m148 -165 c85 -44 90 -170 9
-228 -42 -30 -113 -30 -154 0 -34 24 -66 94 -59 127 3 11 5 25 5 32 1 16 60
73 85 83 29 10 79 4 114 -14z"/>
</g>
</svg>
